<?xml version="1.0" encoding="UTF-8" standalone="no"?>
<svg
   xmlns:dc="http://purl.org/dc/elements/1.1/"
   xmlns:cc="http://creativecommons.org/ns#"
   xmlns:rdf="http://www.w3.org/1999/02/22-rdf-syntax-ns#"
   xmlns:svg="http://www.w3.org/2000/svg"
   xmlns="http://www.w3.org/2000/svg"
   xmlns:sodipodi="http://sodipodi.sourceforge.net/DTD/sodipodi-0.dtd"
   xmlns:inkscape="http://www.inkscape.org/namespaces/inkscape"
   version="1.1"
   width="64"
   height="64"
   id="svg3989"
   inkscape:version="0.48.2 r9819"
   sodipodi:docname="Right-pointing_hand_in_green_octagon.svg">
  <metadata
     id="metadata3999">
    <rdf:RDF>
      <cc:Work
         rdf:about="">
        <dc:format>image/svg+xml</dc:format>
        <dc:type
           rdf:resource="http://purl.org/dc/dcmitype/StillImage" />
        <dc:title></dc:title>
      </cc:Work>
    </rdf:RDF>
  </metadata>
  <defs
     id="defs3997">
    <inkscape:perspective
       sodipodi:type="inkscape:persp3d"
       inkscape:vp_x="-169.42939 : -33.411093 : 1"
       inkscape:vp_y="0 : 1000 : 0"
       inkscape:vp_z="-331.02321 : -49.708296 : 1"
       inkscape:persp3d-origin="-236.70058 : -24.628608 : 1"
       id="perspective4577" />
    <clipPath
       clipPathUnits="userSpaceOnUse"
       id="clipPath4003">
      <path
         style="fill:none;stroke:#000000;stroke-width:1px;stroke-linecap:butt;stroke-linejoin:miter;stroke-opacity:1"
         d="m 42.711864,41.898305 -10.169491,0 0.135593,8.271187 13.016949,-0.81356 z"
         id="path4005"
         inkscape:connector-curvature="0" />
    </clipPath>
    <clipPath
       clipPathUnits="userSpaceOnUse"
       id="clipPath4033">
      <path
         style="fill:none;stroke:#000000;stroke-width:1px;stroke-linecap:butt;stroke-linejoin:miter;stroke-opacity:1"
         d="m 18.033898,46.779661 c 1.355933,-0.949153 29.016949,-11.118644 29.016949,-11.661017 0,-0.542373 -11.254237,-25.6271186 -11.254237,-25.6271186 0,0 -15.322034,0.9491526 -15.864407,1.0847456 -0.542372,0.135593 -14.5084742,7.593221 -14.5084742,7.593221 l 7.3220342,25.898305 z"
         id="path4035"
         inkscape:connector-curvature="0" />
    </clipPath>
  </defs>
  <sodipodi:namedview
     pagecolor="#ffffff"
     bordercolor="#666666"
     borderopacity="1"
     objecttolerance="10"
     gridtolerance="10"
     guidetolerance="10"
     inkscape:pageopacity="0"
     inkscape:pageshadow="2"
     inkscape:window-width="1366"
     inkscape:window-height="706"
     id="namedview3995"
     showgrid="false"
     inkscape:snap-page="true"
     inkscape:zoom="5.6568543"
     inkscape:cx="66.785597"
     inkscape:cy="36.02064"
     inkscape:window-x="-8"
     inkscape:window-y="-8"
     inkscape:window-maximized="1"
     inkscape:current-layer="svg3989" />
  <g
     id="g4827">
    <g
       transform="matrix(0.77466364,0,0,0.84547558,3.3142892,5.0703657)"
       id="g4725">
      <rect
         style="fill:#008080;stroke:#000000;stroke-width:0.61500001;stroke-miterlimit:18.60000038;stroke-opacity:1;stroke-dasharray:none;stroke-dashoffset:0"
         id="rect4607"
         width="38.237289"
         height="19.525423"
         x="15.015686"
         y="41.579914" />
      <path
         style="fill:#008080;stroke:#000000;stroke-width:0.45291212;stroke-linecap:butt;stroke-linejoin:miter;stroke-miterlimit:4;stroke-opacity:1;stroke-dasharray:none"
         d="m 60.767313,33.60532 -6.303186,7.562945 0,19.625358 6.224395,-7.562943 z"
         id="path4649"
         inkscape:connector-curvature="0" />
      <path
         style="fill:#008080;stroke:#000000;stroke-width:0.54521698;stroke-linecap:butt;stroke-linejoin:miter;stroke-miterlimit:4;stroke-opacity:1;stroke-dasharray:none"
         d="m 59.934205,33.085323 -37.308121,0.0093 -7.215622,7.412168 38.099725,-0.0093 z"
         id="path4649-2"
         inkscape:connector-curvature="0"
         sodipodi:nodetypes="ccccc" />
    </g>
    <path
       sodipodi:nodetypes="ccccc"
       inkscape:connector-curvature="0"
       id="path4649-2-4"
       d="m 39.139386,35.875132 -11.303874,0.002 -2.18624,1.623691 11.54372,-0.002 z"
       style="fill:#ffffff;stroke:#000000;stroke-width:0.14046249999999999;stroke-linecap:butt;stroke-linejoin:miter;stroke-miterlimit:4;stroke-opacity:1;stroke-dasharray:none" />
    <g
       style="fill:#ffe6d5"
       transform="matrix(0.54148013,0,0,0.55719937,7.752838,7.8997011)"
       id="g4553">
      <rect
         style="fill:#ffe6d5;stroke:#000000;stroke-width:1.51510954000000010;stroke-miterlimit:18.60000038000000100;stroke-opacity:1;stroke-dasharray:none;stroke-dashoffset:0"
         id="rect4037"
         width="17.705751"
         height="26.114019"
         x="24.937073"
         y="37.709614"
         transform="matrix(0.98120672,-0.19295949,0.20961976,0.97778298,0,0)" />
      <g
         style="fill:#ffe6d5"
         id="g4041">
        <path
           clip-path="url(#clipPath4033)"
           inkscape:connector-curvature="0"
           id="path3993"
           style="fill:#ffe6d5;fill-opacity:1;stroke:#000000;stroke-width:1.73000002000000010;stroke-linejoin:round;stroke-miterlimit:4;stroke-opacity:1"
           d="m 25.433446,12.671285 -14.723052,6.461621 0.780845,10.953171 4.815358,10.971977 c 0.669588,1.525683 6.116169,0.429783 5.752188,-0.399561 l -1.481638,-3.375969 2.140151,4.876415 c 0.390299,0.889313 5.629778,-0.606449 4.943709,-2.169684 l -1.605115,-3.657316 1.770998,4.035287 c 0.909621,0.645012 5.442913,-0.921406 4.902926,-2.151786 l -1.894471,-4.316625 5.804595,13.225992 c 1.093495,2.015706 5.505697,0.256739 4.959798,-2.176745 l -8.603255,-19.602844 2.348006,5.350021 c 0.597241,1.417245 5.395422,-0.507429 4.79306,-2.103568 L 37.66607,22.960312 25.433446,12.671285 z" />
        <path
           clip-path="url(#clipPath4003)"
           inkscape:connector-curvature="0"
           id="path3993-8"
           style="fill:#ffe6d5;fill-opacity:1;stroke:#000000;stroke-width:1.73000002000000010;stroke-linejoin:round;stroke-miterlimit:4;stroke-opacity:1"
           d="m 25.433446,12.671285 -14.723052,6.461621 0.780845,10.953171 4.815358,10.971977 c 0.669588,1.525683 6.116169,0.429783 5.752188,-0.399561 l -1.481638,-3.375969 2.140151,4.876415 c 0.390299,0.889313 5.629778,-0.606449 4.943709,-2.169684 l -1.605115,-3.657316 1.770998,4.035287 c 0.909621,0.645012 5.442913,-0.921406 4.902926,-2.151786 l -1.894471,-4.316625 5.804595,13.225992 c 1.093495,2.015706 5.505697,0.256739 4.959798,-2.176745 l -8.603255,-19.602844 2.348006,5.350021 c 0.597241,1.417245 5.395422,-0.507429 4.79306,-2.103568 L 37.66607,22.960312 25.433446,12.671285 z"
           transform="translate(-2.8983525,-6.6489694)" />
      </g>
    </g>
    <rect
       y="37.571884"
       x="26.317629"
       height="1.5246991"
       width="11.998716"
       id="rect4783"
       style="fill:#008080;fill-opacity:1;fill-rule:nonzero;stroke:#000000;stroke-width:0;stroke-miterlimit:4;stroke-opacity:1;stroke-dasharray:none;stroke-dashoffset:0" />
    <rect
       y="38.455769"
       x="35.090176"
       height="0.35355338"
       width="0.13258252"
       id="rect4785"
       style="fill:#008080;fill-opacity:1;fill-rule:nonzero;stroke:#000000;stroke-width:0;stroke-miterlimit:4;stroke-opacity:1;stroke-dasharray:none;stroke-dashoffset:0" />
    <path
       sodipodi:nodetypes="ccccc"
       inkscape:connector-curvature="0"
       id="path4649-2-4-5"
       d="m 44.155425,36.957913 -6.230495,0.0012 -1.205017,0.961594 6.362694,-0.0012 z"
       style="fill:#008080;stroke:#000000;stroke-width:0;stroke-linecap:butt;stroke-linejoin:miter;stroke-miterlimit:4;stroke-opacity:1;stroke-dasharray:none" />
    <rect
       y="39.532997"
       x="27.575108"
       height="0.44032368"
       width="5.4379416"
       id="rect4805"
       style="fill:#ffffff;fill-opacity:1;fill-rule:nonzero;stroke:#000000;stroke-width:0;stroke-miterlimit:4;stroke-opacity:1;stroke-dasharray:none;stroke-dashoffset:0" />
    <rect
       y="39.09375"
       x="28.21875"
       height="0.43359375"
       width="2.3710938"
       id="rect4807"
       style="fill:#000000;fill-opacity:1;fill-rule:nonzero;stroke:#000000;stroke-width:0;stroke-miterlimit:4;stroke-opacity:1;stroke-dasharray:none;stroke-dashoffset:0" />
    <rect
       y="40.474609"
       x="27.560547"
       height="0.6640625"
       width="2.921875"
       id="rect4807-5"
       style="fill:#008080;fill-opacity:1;fill-rule:nonzero;stroke:#000000;stroke-width:0;stroke-miterlimit:4;stroke-opacity:1;stroke-dasharray:none;stroke-dashoffset:0" />
  </g>
</svg>
