<svg height='300px' width='300px'  fill="#000000" xmlns:xlink="http://www.w3.org/1999/xlink" xmlns="http://www.w3.org/2000/svg" stroke-width="0.501" stroke-linejoin="bevel" fill-rule="evenodd" version="1.1" overflow="visible" viewBox="0 0 96 96" x="0px" y="0px"><g fill="none" stroke="black" font-family="Times New Roman" font-size="16" transform="scale(1 -1)"><g transform="translate(0 -96)"><g><path d="M 14.522,15.576 L 14.522,17.826 L 29.523,17.826 L 29.523,15.576 L 14.522,15.576 Z M 13.88,19.284 L 10.229,22.682 L 19.135,49.885 L 15.12,52.717 L 15.272,56.826 L 37.772,56.826 L 37.772,54.559 L 42.272,54.559 L 42.272,56.826 L 82.772,56.826 L 82.772,55.326 L 83.522,55.326 L 83.522,53.076 L 82.772,53.076 L 82.772,51.38 L 57.812,51.38 L 55.847,49.415 L 55.847,43.866 L 57.783,41.929 L 57.729,41.113 L 41.576,41.113 L 38.555,42.61 L 30.383,19.284 L 13.88,19.284 Z M 50.694,42.547 L 52.855,44.708 L 52.855,48.777 L 50.85,50.782 L 44.479,50.782 L 44.48,48.426 L 47.398,45.509 L 46.711,44.908 L 41.305,47.225 L 41.305,50.458 L 39.57,45.507 L 43.959,42.547 L 50.694,42.547 Z M 15.272,58.685 L 15.272,68.076 L 18.799,68.076 L 20.647,69.924 L 21.512,69.059 L 21.512,58.685 L 15.272,58.685 Z M 23.012,58.685 L 23.012,68.076 L 24.512,68.076 L 24.512,58.685 L 23.012,58.685 Z M 26.012,58.685 L 26.012,68.076 L 27.512,68.076 L 27.512,58.685 L 26.012,58.685 Z M 29.012,58.685 L 29.012,68.076 L 30.512,68.076 L 30.512,58.685 L 29.012,58.685 Z M 32.012,58.685 L 32.012,68.076 L 33.512,68.076 L 33.512,58.685 L 32.012,58.685 Z M 35.012,58.685 L 35.012,68.076 L 76.643,68.076 L 78.069,69.502 L 79.495,68.076 L 82.771,68.076 L 82.771,58.685 L 35.012,58.685 Z M 84.272,59.827 L 84.272,66.576 L 85.772,66.576 L 85.772,59.827 L 84.272,59.827 Z" fill="#000000" stroke-linejoin="round" stroke-linecap="round" stroke-width="0.75" stroke="none" marker-start="none" marker-end="none" stroke-miterlimit="79.8403193612775"></path></g></g></g></svg>