<?xml version="1.0" encoding="UTF-8" standalone="no"?>
<svg
   xmlns:dc="http://purl.org/dc/elements/1.1/"
   xmlns:cc="http://creativecommons.org/ns#"
   xmlns:rdf="http://www.w3.org/1999/02/22-rdf-syntax-ns#"
   xmlns:svg="http://www.w3.org/2000/svg"
   xmlns="http://www.w3.org/2000/svg"
   xmlns:sodipodi="http://sodipodi.sourceforge.net/DTD/sodipodi-0.dtd"
   xmlns:inkscape="http://www.inkscape.org/namespaces/inkscape"
   inkscape:version="1.0 (4035a4f, 2020-05-01)"
   height="214.42473"
   width="273.20001"
   sodipodi:docname="hitler.svg"
   id="svg871"
   xml:space="preserve"
   viewBox="0 0 273.20001 214.42473"
   y="0px"
   x="0px"
   version="1.1"><metadata
     id="metadata877"><rdf:RDF><cc:Work
         rdf:about=""><dc:format>image/svg+xml</dc:format><dc:type
           rdf:resource="http://purl.org/dc/dcmitype/StillImage" /><dc:title></dc:title></cc:Work></rdf:RDF></metadata><defs
     id="defs875" /><sodipodi:namedview
     inkscape:current-layer="svg871"
     inkscape:window-maximized="0"
     inkscape:window-y="537"
     inkscape:window-x="840"
     inkscape:cy="147.83774"
     inkscape:cx="115.6578"
     inkscape:zoom="3.3765768"
     fit-margin-bottom="0"
     fit-margin-right="0"
     fit-margin-left="0"
     fit-margin-top="0"
     showgrid="false"
     id="namedview873"
     inkscape:window-height="485"
     inkscape:window-width="840"
     inkscape:pageshadow="2"
     inkscape:pageopacity="0"
     guidetolerance="10"
     gridtolerance="10"
     objecttolerance="10"
     borderopacity="1"
     bordercolor="#666666"
     pagecolor="#ffffff" /><style
     id="style833"
     type="text/css">
	.st0{fill:none;}
</style><path
     id="path835"
     d="M 273.2,214.42473 H 0 c 1.2,-3.1 2.3,-6 3.4,-8.9 3.6,-10.1 7.3,-20.1 10.8,-30.2 1.3,-3.9 3.6,-6.1 7.6,-7.1 8.2,-2.1 16.1,-4.9 24.3,-6.8 7.5,-1.8 15.3,-2.7 22.9,-4.2 8.6,-1.7 16.3,-5.7 24.2,-9.3 0.9,-0.4 1.8,-1 2.3,-1.7 3.8,-5.6 7.2,-11.3 6.5,-18.5 -0.7,-6.7 -1.6,-13.5 -2.4,-20.2 0,-0.4 -0.2,-0.7 -0.3,-1 -5.3,1.4 -7.8,0.6 -10,-4.5 -2.7,-6.100003 -4.9,-12.500003 -6.7,-18.900003 -1.4,-5.1 0.4,-7.8 5.4,-10.3 -4.2,-8.4 -3.4,-17.5 -3.2,-26.4 0,-2.2 0.5,-4.3 0.8,-6.5 1,-7 5.6,-11.5 10.7,-15.6 0.7,-0.5 1.6,-0.7 2.6,-1.2 -0.4,-3.8 2,-6.3 4.9,-8.4 4.8,-3.3 9.5,-6.6 14.5,-9.6 9.3,-5.60000003 19.3,-6.3 29.7,-3.6 12.2,3.1 22.3,9.6 28,21.1 2.6,5.2 3.8,11 5.3,16.7 1.2,4.6 2.3,9.3 2.5,14 0.2,4.4 -0.7,8.9 -1.2,13.4 -0.1,0.5 -0.3,1 -0.4,1.5 5.5,1 7.6,3.1 7.3,8.7 -0.3,5.1 -1.6,10.2 -2.8,15.2 -0.9,3.6 -2.1,7.1 -3.6,10.400003 -1.4,3.4 -2.4,3.7 -6.5,3.3 -1.5,5.1 -3.2,10.3 -4.6,15.6 -0.7,2.5 -1.1,5.2 -1.3,7.8 -0.1,1.5 0.1,2.9 0.7,4.3 1.9,4.4 3.9,8.8 6.2,13.1 0.9,1.7 2.4,3.4 4.1,4.2 9.3,4.7 18.6,9.6 29.1,11.6 7.4,1.4 14.8,2.7 22.1,4.7 8.5,2.4 16.9,5.6 25.3,8.4 2.3,0.7 3,2.6 3.7,4.6 2.6,7.5 5.1,15 7.6,22.5 1.2,3.7 2.4,7.6 3.7,11.8 z m -104.6,-88.8 c -0.3,0.4 -0.4,0.8 -0.8,1 -4.7,3 -9.3,6.3 -14.3,8.9 -5.9,3.1 -12.3,4.1 -19.1,3.1 -8.8,-1.3 -16.5,-5 -23.4,-10.5 -2.4,-1.9 -4.7,-4.1 -7.3,-6.3 0.1,1.9 0.3,3.5 0.3,5.1 0.1,5.3 2.3,9.3 6.8,12 7.6,4.6 15.7,8.2 24.6,9.8 0.7,0.1 1.4,0.2 2,0 9.2,-1.9 17.7,-5.3 25.4,-10.6 4.5,-2.8 6.4,-7.1 5.8,-12.5 0.3,-0.7 0.6,-1.3 0.8,-2 1.7,-5.6 3.2,-11.3 5,-16.9 0.5,-1.5 1.1,-3.4 3.3,-3 2.3,0.4 3.4,-0.8 4,-2.7 2,-6.800003 4,-13.600003 5.8,-20.400003 0.4,-1.3 0.4,-2.7 0.3,-4 -0.3,-4.4 -2,-7.3 -6.8,-5.9 -1.4,0.4 -2.3,-0.3 -2.2,-2 0.1,-1.6 0.2,-3.2 0.1,-4.8 -0.1,-3.4 -0.2,-6.7 -0.5,-10.1 -0.2,-1.7 -1.1,-2.6 -3.1,-2.3 -3.1,0.5 -5.8,-0.7 -7.9,-2.9 -1.2,-1.2 -2.2,-2.8 -3.5,-3.8 -8,-6.1 -16,-12.4 -25.3,-16.5 -7.9,-3.5 -16.2,-5.8 -25,-5.2 -1.6,0.1 -3.1,0.9 -4.6,1.6 -2,0.9 -4,2 -6.2,3.1 0.4,3.2 -1.8,6.3 -2.9,9.7 -1.5,4.5 -3.3,9 -3.8,13.6 -0.7,6.3 -0.4,12.8 -0.5,19.2 0,3.1 -0.6,3.9 -3.5,3.9 -5.7,0 -8.8,3.4 -7.3,8.9 1.7,6.1 3.8,12.1 6.4,17.800003 2,4.5 5,5.8 8.7,1.8 0.1,-0.1 0.3,-0.1 0.6,-0.2 0.3,1.1 0.8,2.1 1,3.2 0.8,4.5 1.4,9.1 2.2,13.6 0.1,0.7 0.4,1.7 1,2.1 5.1,3.7 9.9,7.7 15.3,10.8 11.8,6.7 24,7.6 36.1,0.6 4,-2.5 8.3,-4.8 12.5,-7.2 z m -19.7,62.7 c 0.4,-0.5 0.6,-0.7 0.8,-0.9 6.9,-9.9 12.7,-20.4 17.4,-31.6 2.7,-6.5 2.2,-13 1.5,-19.6 -8.9,8.3 -19.7,12.3 -31.5,15.3 1.1,1.6 2.2,3 3.1,4.5 1,1.8 2.2,3.6 2.7,5.6 1.3,5.1 2.2,10.3 3.4,15.4 0.8,3.8 1.7,7.4 2.6,11.3 z m -44.7,-51.6 c -1.3,7.7 -1,15.2 3,22.3 1.2,2.2 2,4.5 3,6.8 3.6,8 8.7,15 13.8,22.8 1.9,-8.4 3.8,-16.2 5.3,-24.1 0.7,-3.5 1.6,-6.7 4,-9.4 0.9,-1 1.5,-2.3 2.4,-3.8 -11.8,-2.5 -22.3,-6.9 -31.5,-14.6 z m 31.5,72.5 c 0.4,-0.2 0.6,-0.3 0.7,-0.4 3.4,-5.6 6.8,-11.2 10.2,-16.8 0.2,-0.4 0.4,-1 0.2,-1.4 -1.8,-4.9 -3.7,-9.7 -5.7,-14.5 -0.3,-0.6 -1.1,-1.5 -1.6,-1.5 -2.4,0.2 -4.8,0.6 -7.2,0.9 -0.1,0 -0.2,0.2 -0.2,0.4 -1.7,3.8 -3.7,7.6 -5.2,11.5 -0.6,1.6 -1,3.8 -0.4,5.1 2.9,5.7 6.2,11.2 9.2,16.7 z m 4.1,-37.1 c 1.2,-6.2 1,-11.9 -3.3,-16.9 -5.2,5.8 -6.4,11.9 -3.5,16.9 z" /><path
     id="path837"
     d="m 168.6,125.62473 c -4.2,2.4 -8.4,4.7 -12.6,7.1 -12.2,7 -24.3,6.1 -36.1,-0.6 -5.4,-3.1 -10.3,-7.1 -15.3,-10.8 -0.5,-0.4 -0.8,-1.3 -1,-2.1 -0.8,-4.5 -1.4,-9.1 -2.2,-13.6 -0.2,-1.1 -0.7,-2.1 -1,-3.2 -0.3,0.1 -0.5,0.1 -0.6,0.2 -3.7,4 -6.7,2.7 -8.7,-1.8 -2.6,-5.800003 -4.7,-11.700003 -6.4,-17.800003 -1.5,-5.5 1.6,-8.9 7.3,-8.9 2.8,0 3.5,-0.8 3.5,-3.9 0,-6.4 -0.2,-12.8 0.5,-19.2 0.5,-4.6 2.3,-9.2 3.8,-13.6 1.1,-3.4 3.3,-6.5 2.9,-9.7 2.2,-1.1 4.2,-2.2 6.2,-3.1 1.5,-0.7 3.1,-1.4 4.6,-1.6 8.8,-0.7 17.1,1.7 25,5.2 9.3,4.1 17.3,10.4 25.3,16.5 1.4,1 2.3,2.6 3.5,3.8 2.2,2.2 4.8,3.4 7.9,2.9 2,-0.3 3,0.6 3.1,2.3 0.3,3.1 0.4,6.1 0.5,9.2 0.1,1.9 0,3.8 -0.1,5.7 -0.1,1.7 0.8,2.3 2.2,2 4.8,-1.3 6.4,1.6 6.8,5.9 0.1,1.3 0.1,2.8 -0.3,4 -1.9,6.8 -3.8,13.6 -5.8,20.400003 -0.6,1.9 -1.7,3.1 -4,2.7 -2.2,-0.4 -2.8,1.5 -3.3,3 -1.7,5.6 -3.3,11.3 -5,16.9 -0.2,0.8 -0.5,1.4 -0.7,2.1 0,0 0,0 0,0 z m -29.3,-19.9 c 0,-0.1 0,-0.2 0,-0.3 1.8,0 3.6,0 5.4,0 7.4,-0.2 6,0.1 6.5,-6.700003 0.1,-1.9 -0.7,-2.9 -2.6,-2.9 -5.7,0 -11.4,-0.1 -17.2,0 -2.7,0.1 -3.1,0.7 -3.1,3.5 0,1.100003 0,2.100003 0.1,3.200003 0.1,2.7 0.6,3.2 3.4,3.2 2.6,0 5,0 7.5,0 z M 124.8,66.524727 c -4.6,-4.2 -15.3,-1.1 -17,5 1.8,-1.2 3.6,-2.4 5.4,-3.7 0.9,3.1 2.8,4.3 5.7,3.7 2.4,-0.5 3.1,-2 2.5,-5 1.1,0 2.2,0 3.4,0 z m 28.6,-2.7 c -0.7,2.7 -0.1,4.1 1.7,4.9 2.6,1 4.8,0 6.6,-3.1 1.8,1.2 3.5,2.4 5.5,3.7 -2.8,-6.7 -12.9,-9.3 -17.8,-5.2 1.4,-0.1 2.6,-0.2 4,-0.3 z m -30.6,50.700003 c 11.8,-5.3 23.6,-5.3 35.5,-0.4 -9,-7.6 -27.4,-7.4 -35.5,0.4 z m 18.3,-22.200003 c -1.3,-0.1 -2.7,0 -3.9,-0.4 -4.7,-1.8 -6,-5.5 -3.3,-9.8 2.6,-4.3 4.4,-8.9 4.5,-14 0,-1 -0.1,-1.9 -0.2,-2.9 -1,6.2 -3.3,11.7 -6.6,16.8 -0.5,0.8 -0.8,1.8 -1.1,2.7 -0.7,2.6 0.6,5.3 3.3,7.1 2.9,1.9 5.2,2 7.3,0.5 z m -37.3,-23.6 c 0.1,0 0.1,0 0.2,0 0.2,-0.2 0.4,-0.5 0.5,-0.7 3.6,-6.4 9.1,-8.6 16.2,-7.4 2.4,0.4 4.9,0.6 7.3,1 0.1,-0.3 0.1,-0.5 0.2,-0.8 -3.8,-0.8 -7.5,-2.1 -11.3,-2.4 -7,-0.5 -11.9,3.6 -13.1,10.3 z m 66.5,-1.4 c -0.7,-4.8 -3.7,-8.5 -7.7,-9.8 -4.3,-1.4 -12.5,-0.1 -16.4,2.6 2.7,-0.4 5.3,-0.7 7.9,-1.1 6.8,-1 12.2,1.1 15.6,7.3 0.2,0.4 0.4,0.7 0.6,1 z m 8.5,6.5 c 1,0 1.4,0 1.8,0 4,-0.3 5,0.9 3.7,4.7 -0.7,2.1 -1.6,4.2 -2.5,6.3 -0.5,1.3 -1.2,2.5 -1.8,3.7 3.4,-2.6 5.6,-5.9 6.7,-9.9 0.5,-2 0.7,-4.1 -1.1,-5.4 -2.1,-1.5 -4.3,-0.8 -6.8,0.6 z m -85.8,4.5 c -1.9,-1 -3.9,-1.6 -5.9,-0.5 -1.7,1 -1.8,2.7 -1.6,4.4 0.8,4.5 3.2,8.1 6.5,11.2 -1.2,-3.3 -2.8,-6.5 -3.9,-9.8 -1.4,-4.1 -0.5,-5.2 3.7,-5.3 0.5,0.1 0.8,0 1.2,0 z"
     class="st0" /><path
     id="path839"
     d="m 148.9,188.32473 c -0.9,-3.9 -1.8,-7.5 -2.7,-11.1 -1.1,-5.1 -2.1,-10.3 -3.4,-15.4 -0.5,-2 -1.7,-3.8 -2.7,-5.6 -0.9,-1.5 -2,-2.9 -3.1,-4.5 11.8,-3 22.7,-7 31.5,-15.3 0.7,6.6 1.2,13 -1.5,19.6 -4.7,11.2 -10.5,21.7 -17.4,31.6 -0.1,0 -0.3,0.2 -0.7,0.7 z"
     class="st0" /><path
     id="path841"
     d="m 104.2,136.72473 c 9.1,7.6 19.6,12.1 31.5,14.7 -0.9,1.5 -1.5,2.8 -2.4,3.8 -2.5,2.7 -3.3,5.9 -4,9.4 -1.5,7.9 -3.4,15.7 -5.3,24.1 -5.1,-7.8 -10.2,-14.9 -13.8,-22.8 -1,-2.3 -1.8,-4.6 -3,-6.8 -3.9,-7.2 -4.3,-14.7 -3,-22.4 z"
     class="st0" /><path
     id="path843"
     d="m 168.6,125.62473 c 0.7,5.4 -1.3,9.6 -5.7,12.6 -7.7,5.3 -16.3,8.7 -25.4,10.6 -0.6,0.1 -1.4,0.1 -2,0 -8.8,-1.6 -16.9,-5.2 -24.6,-9.8 -4.5,-2.7 -6.8,-6.7 -6.8,-12 0,-1.6 -0.2,-3.2 -0.3,-5.1 2.6,2.2 4.8,4.4 7.3,6.3 6.9,5.5 14.6,9.3 23.4,10.5 6.7,1 13.2,0 19.1,-3.1 5,-2.6 9.6,-5.9 14.3,-8.9 0.2,-0.3 0.4,-0.7 0.7,-1.1 0,0 0,0 0,0 z"
     class="st0" /><path
     id="path845"
     d="m 135.7,209.22473 c -3.1,-5.5 -6.3,-11 -9.1,-16.6 -0.7,-1.4 -0.2,-3.6 0.4,-5.1 1.5,-3.9 3.4,-7.7 5.2,-11.5 0.1,-0.1 0.1,-0.4 0.2,-0.4 2.4,-0.4 4.8,-0.8 7.2,-0.9 0.5,0 1.4,0.8 1.6,1.5 2,4.8 3.8,9.6 5.7,14.5 0.2,0.4 0,1.1 -0.2,1.4 -3.4,5.6 -6.8,11.2 -10.2,16.8 -0.1,0 -0.3,0.1 -0.8,0.3 z"
     class="st0" /><path
     id="path847"
     d="m 139.8,172.12473 c -2.4,0 -4.6,0 -6.8,0 -2.9,-5 -1.6,-11.1 3.5,-16.9 4.3,5 4.5,10.7 3.3,16.9 z"
     class="st0" /><path
     id="path849"
     d="m 139.3,105.72473 c -2.5,0 -5,0 -7.5,0 -2.8,0 -3.3,-0.4 -3.4,-3.2 0,-1.1 -0.1,-2.1 -0.1,-3.200003 0,-2.8 0.4,-3.5 3.1,-3.5 5.7,-0.1 11.4,0 17.2,0 1.9,0 2.7,1 2.6,2.9 -0.5,6.800003 0.9,6.500003 -6.5,6.700003 -1.8,0 -3.6,0 -5.4,0 0,0.1 0,0.2 0,0.3 z" /><path
     id="path851"
     d="m 124.8,66.524727 c -1.2,0 -2.3,0 -3.4,0 0.6,3 -0.1,4.5 -2.5,5 -2.8,0.6 -4.8,-0.5 -5.7,-3.7 -1.8,1.3 -3.6,2.5 -5.4,3.7 1.7,-6 12.4,-9.2 17,-5 z" /><path
     id="path853"
     d="m 153.4,63.824727 c -1.4,0.1 -2.6,0.2 -3.9,0.3 4.9,-4.1 14.9,-1.5 17.8,5.2 -2,-1.3 -3.7,-2.5 -5.5,-3.7 -1.8,3.1 -4.1,4.1 -6.6,3.1 -1.9,-0.8 -2.5,-2.2 -1.8,-4.9 z" /><path
     id="path855"
     d="m 122.8,114.52473 c 8.1,-7.8 26.5,-8 35.5,-0.4 -11.9,-4.9 -23.8,-4.9 -35.5,0.4 z" /><path
     id="path857"
     d="m 141.1,92.324727 c -2,1.5 -4.4,1.4 -7.2,-0.6 -2.7,-1.8 -4,-4.5 -3.3,-7.1 0.2,-0.9 0.6,-1.9 1.1,-2.7 3.3,-5.1 5.6,-10.7 6.6,-16.8 0.1,1 0.2,1.9 0.2,2.9 -0.1,5.1 -1.9,9.7 -4.5,14 -2.7,4.4 -1.4,8 3.3,9.8 1.1,0.5 2.5,0.4 3.8,0.5 z" /><path
     id="path859"
     d="m 103.8,68.724727 c 1.2,-6.7 6.2,-10.9 13.1,-10.4 3.8,0.3 7.5,1.5 11.3,2.4 -0.1,0.3 -0.1,0.5 -0.2,0.8 -2.4,-0.3 -4.9,-0.6 -7.3,-1 -7.1,-1.2 -12.6,1 -16.2,7.4 -0.1,0.3 -0.3,0.5 -0.5,0.7 -0.1,0.2 -0.2,0.1 -0.2,0.1 z" /><path
     id="path861"
     d="m 170.3,67.324727 c -0.2,-0.3 -0.4,-0.6 -0.6,-0.9 -3.4,-6.2 -8.8,-8.3 -15.6,-7.3 -2.6,0.4 -5.2,0.7 -7.9,1.1 3.9,-2.7 12.1,-4 16.4,-2.6 4,1.2 7.1,4.9 7.7,9.7 z" /><path
     id="path863"
     d="m 178.8,73.824727 c 2.5,-1.4 4.7,-2.1 6.8,-0.6 1.8,1.3 1.7,3.4 1.1,5.4 -1.1,4 -3.3,7.3 -6.7,9.9 0.6,-1.2 1.3,-2.5 1.8,-3.7 0.9,-2.1 1.8,-4.1 2.5,-6.3 1.3,-3.8 0.3,-5 -3.7,-4.7 -0.4,0 -0.9,0 -1.8,0 z" /><path
     id="path865"
     d="m 93,78.324727 c -0.4,0 -0.7,0.1 -1.1,0.1 -4.3,0 -5.2,1.2 -3.7,5.3 1.2,3.3 2.7,6.5 3.9,9.8 -3.3,-3.1 -5.8,-6.7 -6.5,-11.2 -0.3,-1.7 -0.2,-3.4 1.6,-4.4 1.9,-1.2 3.9,-0.6 5.8,0.4 z" /><text
     id="text881"
     y="279.6405"
     x="-5.5652094"
     style="font-size:26.6667px;line-height:1.25;font-family:FORQUE;-inkscape-font-specification:'FORQUE, Normal'"
     xml:space="preserve"><tspan
       y="279.6405"
       x="-5.5652094"
       id="tspan879"
       sodipodi:role="line" /></text></svg>
