<?xml version="1.0" encoding="UTF-8" standalone="no"?>
<svg
   xmlns:dc="http://purl.org/dc/elements/1.1/"
   xmlns:cc="http://creativecommons.org/ns#"
   xmlns:rdf="http://www.w3.org/1999/02/22-rdf-syntax-ns#"
   xmlns:svg="http://www.w3.org/2000/svg"
   xmlns="http://www.w3.org/2000/svg"
   xmlns:sodipodi="http://sodipodi.sourceforge.net/DTD/sodipodi-0.dtd"
   xmlns:inkscape="http://www.inkscape.org/namespaces/inkscape"
   inkscape:version="1.0 (4035a4f, 2020-05-01)"
   sodipodi:docname="INVESTIGATE_LOYALTY.svg"
   id="svg26"
   xml:space="preserve"
   enable-background="new 0 0 100 100"
   viewBox="0 0 100 100"
   y="0px"
   x="0px"
   version="1.1"><metadata
     id="metadata32"><rdf:RDF><cc:Work
         rdf:about=""><dc:format>image/svg+xml</dc:format><dc:type
           rdf:resource="http://purl.org/dc/dcmitype/StillImage" /></cc:Work></rdf:RDF></metadata><defs
     id="defs30"><inkscape:path-effect
       message="Use fill-rule evenodd on &lt;b&gt;fill and stroke&lt;/b&gt; dialog if no flatten result after convert clip to paths."
       hide_clip="false"
       flatten="false"
       inverse="true"
       lpeversion="1"
       is_visible="true"
       id="path-effect873"
       effect="powerclip" /><clipPath
       id="clipPath869"
       clipPathUnits="userSpaceOnUse"><ellipse
         d="M 88.496237,34.558147 A 27.299524,27.059536 0 0 1 61.196712,61.617683 27.299524,27.059536 0 0 1 33.897188,34.558147 27.299524,27.059536 0 0 1 61.196712,7.4986115 27.299524,27.059536 0 0 1 88.496237,34.558147"
         style="display:none;fill:#ffffff;fill-opacity:1;stroke:#000000;stroke-width:0.858001"
         id="ellipse871"
         cx="61.196712"
         cy="34.558147"
         rx="27.299524"
         ry="27.059536" /><path
         d="M 24.018415,-2.1401787 H 98.85499 V 71.736446 H 24.018415 Z M 88.496237,34.558147 A 27.299524,27.059536 0 0 0 61.196712,7.4986115 27.299524,27.059536 0 0 0 33.897188,34.558147 27.299524,27.059536 0 0 0 61.196712,61.617683 27.299524,27.059536 0 0 0 88.496237,34.558147"
         class="powerclip"
         style="fill:#ffffff;fill-opacity:1;stroke:#000000;stroke-width:0.858001"
         id="lpe_path-effect873" /></clipPath></defs><sodipodi:namedview
     inkscape:current-layer="svg26"
     inkscape:window-maximized="0"
     inkscape:window-y="25"
     inkscape:window-x="0"
     inkscape:cy="35.089866"
     inkscape:cx="-15.394828"
     inkscape:zoom="4.1668903"
     showgrid="false"
     id="namedview28"
     inkscape:window-height="949"
     inkscape:window-width="1512"
     inkscape:pageshadow="2"
     inkscape:pageopacity="0"
     guidetolerance="10"
     gridtolerance="10"
     objecttolerance="10"
     borderopacity="1"
     bordercolor="#666666"
     pagecolor="#ffffff" /><g
     style="fill:#cccccc;fill-opacity:1"
     id="g24"><g
       style="fill:#cccccc;fill-opacity:1"
       id="g22"><path
         style="fill:#cccccc;fill-opacity:1"
         id="path10"
         d="M20.24,78.26l1.165-0.773l4.481-2.978l-1.559-0.744l-1.985-0.947l1.096-1.907l1.978-3.435    c-8.857,4.622-19.004,10.446-21,11.582c-3.476,1.976-4.343,3.854-4.343,8.425V97.69c0,1.196,0.978,2.171,2.171,2.171h22.784    l-4.486-20.236L20.24,78.26z" /><path
         style="fill:#cccccc;fill-opacity:1"
         id="path12"
         d="M50,69.706c3.285-2.041,14.5-9.352,15.196-14.46v-8.754c2.708-1.98,4.343-5.027,4.343-9.65v-8.714v-1.69    c0.591-0.362,2.247-1.574,2.31-3.879c0.687-8.646-0.967-9.995-2.813-13.305c-1.847-3.311-3.565-3.438-3.565-3.438l5.73-2.165    c0,0-2.542-1.591-5.22-2.546c-2.68-0.955-7.385-1.083-12.479-0.891C48.41,0.405,41.725,1.424,38.351,3.397    c-3.374,1.974-5.411,5.411-5.984,7.129c-0.572,1.719-0.004,3.591-0.004,3.591s-2.351-0.917-3.305,0.865    c-0.956,1.783-1.4,7.002-0.764,9.931c0.636,2.929,1.949,3.141,1.949,3.141l0.224-0.006v0.08v8.714c0,4.67,1.63,7.727,4.342,9.695    v4.628v4.081C35.502,60.354,46.715,67.665,50,69.706z" /><polygon
         style="fill:#cccccc;fill-opacity:1"
         id="polygon14"
         points="34.093,58.521 32.605,58.799 28.754,65.762 25.206,71.926 30.005,74.219 22.531,79.183 27.114,99.861     37.428,99.861 32.966,63.716   " /><path
         style="fill:#cccccc;fill-opacity:1"
         id="path16"
         d="M95.589,79.058c-2.018-1.147-12.059-7.074-21.016-11.713l1.99,3.565l1.096,1.907l-1.985,0.947l-1.559,0.744l4.481,2.978    l1.165,0.773l-0.302,1.365l-4.486,20.236h22.784c1.193,0,2.171-0.975,2.171-2.171V87.482    C99.929,82.912,99.062,81.033,95.589,79.058z" /><path
         style="fill:#cccccc;fill-opacity:1"
         id="path18"
         d="M53.611,72.92l-2.026-1.821H50h-1.583L46.39,72.92c0.63,1.12,1.231,2.697,1.145,4.569    c-0.175,3.796-4.758,6.572-4.632,22.309H50h7.098c0.127-15.736-4.455-18.513-4.631-22.309C52.38,75.617,52.981,74.04,53.611,72.92    z" /><path
         style="fill:#cccccc;fill-opacity:1"
         id="path20"
         d="M69.996,74.219l4.801-2.293l-3.623-6.304c-0.001,0-0.001-0.003-0.004-0.003l-0.073-0.131l-0.021-0.04c0,0,0,0,0.002,0    l-3.682-6.649l-1.487-0.277l1.128,5.194l-4.463,36.146h10.313l4.584-20.679L69.996,74.219z M68.978,83.602v0.452v2.083    c0,0.21-0.169,0.38-0.381,0.38c-0.21,0-0.38-0.17-0.38-0.38v-2.059v-3.304c0-0.21,0.17-0.38,0.38-0.38    c0.212,0,0.381,0.17,0.381,0.38v0.171c1.344,0.673,2.449-0.485,4.194,0.212v2.656C71.429,83.114,70.321,84.273,68.978,83.602z" /></g></g><path
     transform="translate(-12.959304,-1.6799099)"
     d="M 93.35499,34.798134 A 31.918287,31.438313 0 0 1 61.436703,66.236446 31.918287,31.438313 0 0 1 29.518415,34.798134 31.918287,31.438313 0 0 1 61.436703,3.3598213 31.918287,31.438313 0 0 1 93.35499,34.798134 Z"
     sodipodi:ry="31.438313"
     sodipodi:rx="31.918287"
     sodipodi:cy="34.798134"
     sodipodi:cx="61.436703"
     sodipodi:type="arc"
     inkscape:path-effect="#path-effect873"
     clip-path="url(#clipPath869)"
     id="path34"
     style="fill:#220000;stroke:#000000" /><path
     sodipodi:nodetypes="cccc"
     id="path879"
     d="m 63.509129,59.001974 c 6.488316,12.944325 22.852615,37.491782 20.546866,34.020517 L 90.715131,88.795234 65.196,55.246"
     style="fill:#000000;fill-opacity:1;stroke:#000000;stroke-width:1px;stroke-linecap:butt;stroke-linejoin:miter;stroke-opacity:1" /></svg>
